<svg width="70" height="61" viewBox="0 0 70 61" fill="none" xmlns="http://www.w3.org/2000/svg">
<path d="M2.58745 1.33466C6.30288 1.99032 8.48842 6.3614 13.9523 25.5942C17.8863 38.7075 20.2904 51.1651 19.6347 53.7877C18.5419 57.2846 19.4161 59.2516 22.0388 60.1258C26.4099 61.8742 33.1851 58.1588 32.5294 54.6619C32.0923 53.132 36.0263 52.2578 43.2386 52.2578C49.3581 52.2578 53.7292 52.9135 53.0735 53.7877C50.888 55.9732 55.9147 61 60.5044 61C65.5311 61 67.4981 57.7217 65.7497 52.2578C64.4383 48.3238 62.4713 47.8867 43.6757 47.8867C27.0655 47.8867 23.1316 47.2311 23.1316 44.6084C23.1316 42.2043 27.2841 41.3301 42.1458 40.893L61.16 40.2373L63.5641 30.4024C64.8754 24.9385 66.8424 17.9448 67.4981 14.4479L69.028 8.54695H40.3974C13.7337 8.54695 11.7667 8.3284 10.674 4.17586C9.79975 1.1161 7.83276 -0.195225 3.68022 0.0233269C-0.909418 0.241882 -1.12797 0.678993 2.58745 1.33466ZM64.6569 13.3551C64.6569 14.885 63.3456 20.5674 61.5971 26.0313L58.7559 35.8662H39.3046H20.0718L16.3564 23.1901L12.641 10.7325H38.6489C58.1003 10.7325 64.6569 11.3882 64.6569 13.3551ZM29.0325 53.3506C30.5624 57.7217 28.5954 59.6887 24.4429 58.1588C22.4759 57.2846 21.6017 55.3176 22.2573 53.3506C24.0058 49.1981 27.2841 49.1981 29.0325 53.3506ZM63.3456 53.3506C64.0012 55.3176 63.127 57.2846 61.16 58.1588C57.0075 59.6887 55.0405 57.7217 56.5704 53.3506C58.3188 49.1981 61.5971 49.1981 63.3456 53.3506Z" fill="#93999F"/>
</svg>
