<svg width="54" height="58" viewBox="0 0 54 58" fill="none" xmlns="http://www.w3.org/2000/svg">
<path d="M18.8254 1.59327C18.8254 2.8483 25.7281 3.89415 34.095 4.3125L49.1553 4.94001V28.9947V53.0495L32.4216 54.0953C11.5044 55.5595 16.1062 58.6971 37.8601 57.8604L53.3388 57.2329V28.9947V0.75658L36.1867 0.129066C25.5189 -0.28928 18.8254 0.338238 18.8254 1.59327Z" fill="#93999F"/>
<path d="M25.1006 17.9086C25.1006 18.5362 26.5648 21.0462 28.6565 23.1379C31.7941 26.6939 31.3757 26.903 16.1062 26.903C6.69349 26.903 0 27.7397 0 28.9947C0 30.2498 6.69349 31.0865 16.1062 31.0865C32.0033 31.0865 32.0033 31.0865 28.2382 35.2699C21.7538 42.3817 26.9831 42.8001 33.8858 35.6882L40.5793 28.9947L34.5133 22.7196C28.8657 16.6536 25.1006 14.7711 25.1006 17.9086Z" fill="#93999F"/>
</svg>
