<svg width="66" height="58" viewBox="0 0 66 58" fill="none" xmlns="http://www.w3.org/2000/svg">
<path d="M10.328 0.989346C4.44105 3.36479 0 10.4911 0 17.6175C0 27.9455 11.6707 43.5408 27.1627 53.9721L33.0497 58L39.0399 53.9721C48.7482 47.3621 59.4894 36.1046 63.0009 28.6684C66.719 20.7159 66.9256 15.3453 63.8272 9.14848C60.7287 3.26151 57.1139 0.679504 50.9171 0.163105C45.0302 -0.456577 38.7301 2.12543 35.2185 6.66975L33.0497 9.45832L30.7775 6.56647C26.543 1.09262 16.7314 -1.59266 10.328 0.989346ZM22.4118 3.05495C26.543 4.60415 30.7775 8.94192 31.5005 12.3502C32.3267 16.1715 33.7726 16.1715 34.5989 12.3502C34.9087 10.801 36.4579 8.21896 38.0071 6.77303C43.5842 1.40247 51.227 0.472946 56.9074 4.29431C67.5452 11.3174 65.8928 25.3635 52.7762 39.5128C46.8892 45.8129 35.4251 54.5918 33.0497 54.5918C30.4677 54.5918 18.9003 45.5031 12.4969 38.48C2.89184 27.9455 -0.10328 18.1339 3.92465 10.1813C7.33289 3.26151 15.1822 0.266384 22.4118 3.05495Z" fill="#93999F"/>
</svg>
