<svg width="62" height="62" viewBox="0 0 62 62" fill="none" xmlns="http://www.w3.org/2000/svg">
<path d="M28.0608 0.0445557C27.8201 0.0698929 27.022 0.18391 26.2872 0.297928C14.7462 2.02085 5.01674 10.3061 1.40621 21.4797C0.291376 24.9129 0 26.9272 0 31.0064C0 33.5528 0.0506741 34.5283 0.228034 35.6305C1.35553 42.3955 4.14261 47.9569 8.79196 52.7076C13.492 57.5343 19.4462 60.6001 26.3505 61.753C28.3395 62.0823 33.6096 62.0823 35.5986 61.753C42.3382 60.6255 47.8744 57.8511 52.6251 53.2397C57.5151 48.489 60.5682 42.5728 61.7211 35.6305C62.0505 33.6415 62.0505 28.3714 61.7211 26.3824C60.5682 19.4401 57.5151 13.5239 52.6251 8.77317C50.8768 7.07559 49.838 6.23947 47.9377 4.99795C44.1372 2.51492 40.3746 1.07071 35.6619 0.272591C34.5091 0.0825615 29.1376 -0.0821304 28.0608 0.0445557ZM35.4719 2.99632C41.5781 4.02248 46.6329 6.61952 50.9908 10.9902C55.4375 15.4368 58.0345 20.5422 59.0607 26.8892C59.3647 28.8401 59.3647 33.1854 59.048 35.1237C58.0219 41.496 55.4375 46.5761 50.9908 51.0227C46.5695 55.4567 41.4388 58.0538 35.0918 59.0926C33.0015 59.422 28.6815 59.3966 26.5406 59.0292C20.3077 57.9651 15.2529 55.3554 10.8949 50.972C6.54963 46.6014 4.01592 41.648 2.95177 35.4404C2.72373 34.1356 2.67306 33.3501 2.67306 31.0064C2.67306 28.6628 2.72373 27.8773 2.95177 26.5725C4.01592 20.3775 6.5623 15.3861 10.8949 11.0408C15.3289 6.58152 20.6497 3.88312 26.7939 2.95832C28.7449 2.66694 29.0363 2.65427 31.608 2.70495C33.1662 2.73029 34.4584 2.83163 35.4719 2.99632Z" fill="#93999F"/>
<path d="M28.8589 10.9268C24.7543 11.6743 21.2325 14.5247 19.7122 18.3506C19.0281 20.0608 18.8888 20.8716 18.8888 22.9619C18.9015 25.0522 19.0788 25.977 19.8263 27.7253C20.9791 30.4364 23.4495 32.8941 26.1732 34.0596C29.0363 35.2757 32.2414 35.3644 35.1932 34.3003C38.2463 33.1854 41.0207 30.487 42.2369 27.4466C42.9083 25.7744 43.0603 24.9256 43.0603 22.8986C43.0603 20.8716 42.9083 20.0228 42.2369 18.3506C41.3501 16.1083 39.3865 13.7899 37.3215 12.5357C34.8258 11.0155 31.684 10.4074 28.8589 10.9268ZM33.2169 13.7139C36.5614 14.4867 39.3485 17.2991 40.1846 20.7196C40.4633 21.8851 40.4506 23.9754 40.1593 25.1156C39.2725 28.6121 36.6881 31.1965 33.1916 32.0833C32.0514 32.3747 29.9611 32.3873 28.7956 32.1086C25.3497 31.2725 22.6007 28.5234 21.7646 25.0776C21.4985 23.9628 21.4985 21.8344 21.7646 20.7196C22.474 17.8058 24.6023 15.3101 27.3387 14.17C28.1368 13.8533 28.5549 13.7393 30.0878 13.4732C30.6072 13.3845 32.3681 13.5239 33.2169 13.7139Z" fill="#93999F"/>
<path d="M21.4604 37.8475C18.7494 38.1768 16.279 39.3804 14.3407 41.2933C13.2386 42.3828 12.5038 43.4343 11.807 44.9292C10.9709 46.7028 11.0469 47.6402 12.0224 48.0456C12.8965 48.413 13.4919 48.0076 13.986 46.7028C14.9235 44.2451 16.5577 42.4715 18.8761 41.3947C20.7763 40.4952 20.637 40.5079 30.9745 40.5079C41.312 40.5079 41.1727 40.4952 43.0729 41.3947C45.3913 42.4715 47.0255 44.2451 47.963 46.7028C48.4571 48.0076 49.0525 48.413 49.9266 48.0456C50.9021 47.6402 50.9781 46.7028 50.142 44.9292C48.6978 41.8381 46.1767 39.5197 43.1363 38.4556C41.236 37.7968 41.426 37.8095 31.5446 37.7715C26.4645 37.7588 21.9165 37.7968 21.4604 37.8475Z" fill="#93999F"/>
</svg>
