<svg width="203" height="203" viewBox="0 0 203 203" fill="none" xmlns="http://www.w3.org/2000/svg">
<path d="M91.757 0.14569C90.9699 0.228541 88.3602 0.601369 85.9575 0.974196C48.219 6.60804 16.4044 33.7002 4.59821 70.2373C0.952782 81.4636 0 88.0502 0 101.389C0 109.716 0.165701 112.905 0.745655 116.509C4.43251 138.63 13.5461 156.816 28.7492 172.351C44.1179 188.134 63.5878 198.159 86.1646 201.928C92.6684 203.005 109.901 203.005 116.405 201.928C138.443 198.241 156.546 189.169 172.081 174.091C188.071 158.556 198.054 139.21 201.824 116.509C202.901 110.006 202.901 92.7727 201.824 86.2689C198.054 63.5678 188.071 44.2222 172.081 28.6877C166.364 23.1367 162.967 20.4027 156.753 16.343C144.326 8.22362 132.022 3.50114 116.612 0.891346C112.843 0.269966 95.2782 -0.268563 91.757 0.14569ZM115.991 9.79778C135.958 13.1532 152.487 21.6454 166.737 35.9371C181.277 50.4774 189.769 67.1718 193.125 87.9259C194.119 94.3054 194.119 108.514 193.083 114.852C189.728 135.689 181.277 152.301 166.737 166.841C152.279 181.34 135.502 189.832 114.748 193.229C107.913 194.306 93.7869 194.223 86.786 193.022C66.4047 189.542 49.8761 181.009 35.6258 166.675C21.4169 152.384 13.1318 136.186 9.65209 115.888C8.90644 111.621 8.74074 109.053 8.74074 101.389C8.74074 93.7254 8.90644 91.1571 9.65209 86.8903C13.1318 66.6333 21.4583 50.3117 35.6258 36.1028C50.1246 21.5211 67.5232 12.6976 87.6145 9.67351C93.994 8.72073 94.9468 8.6793 103.356 8.845C108.451 8.92785 112.677 9.25926 115.991 9.79778Z" fill="#FF0000"/>
<path d="M94.3668 35.73C80.945 38.1741 69.4288 47.4948 64.4578 60.0053C62.2208 65.5977 61.7651 68.2489 61.7651 75.0841C61.8065 81.9193 62.3865 84.9433 64.8306 90.66C68.6003 99.525 76.6782 107.562 85.5847 111.373C94.9468 115.349 105.427 115.639 115.079 112.16C125.063 108.514 134.135 99.6907 138.112 89.7486C140.307 84.2805 140.805 81.505 140.805 74.877C140.805 68.2489 140.307 65.4734 138.112 60.0053C135.212 52.673 128.791 45.0922 122.039 40.9911C113.878 36.02 103.605 34.0316 94.3668 35.73ZM108.617 44.8436C119.553 47.3706 128.667 56.567 131.401 67.7518C132.312 71.5629 132.271 78.3981 131.318 82.1264C128.418 93.5598 119.968 102.011 108.534 104.91C104.806 105.863 97.9708 105.904 94.1597 104.993C82.892 102.259 73.9027 93.2698 71.1687 82.0021C70.2987 78.3567 70.2987 71.3972 71.1687 67.7518C73.4885 58.224 80.4479 50.0632 89.3958 46.3349C92.0056 45.2993 93.3726 44.9265 98.3851 44.0565C100.084 43.7666 105.842 44.2222 108.617 44.8436Z" fill="#FF0000"/>
<path d="M70.1745 123.759C61.3094 124.836 53.2315 128.771 46.8934 135.026C43.2894 138.589 40.8868 142.027 38.6084 146.916C35.8743 152.715 36.1229 155.781 39.3126 157.106C42.171 158.307 44.1179 156.982 45.7335 152.715C48.799 144.679 54.1429 138.879 61.7237 135.358C67.9375 132.417 67.4818 132.458 101.285 132.458C135.088 132.458 134.632 132.417 140.846 135.358C148.427 138.879 153.771 144.679 156.836 152.715C158.452 156.982 160.399 158.307 163.257 157.106C166.447 155.781 166.695 152.715 163.961 146.916C159.239 136.808 150.995 129.227 141.053 125.747C134.839 123.593 135.461 123.635 103.149 123.51C86.5375 123.469 71.6658 123.593 70.1745 123.759Z" fill="#FF0000"/>
</svg>
